<?xml version="1.0" encoding="UTF-8"?>
<svg version="1.1" xmlns="http://www.w3.org/2000/svg" width="1024" height="1024">
<path d="M0 0 C337.92 0 675.84 0 1024 0 C1024 337.92 1024 675.84 1024 1024 C686.08 1024 348.16 1024 0 1024 C0 686.08 0 348.16 0 0 Z " fill="#052C1A" transform="translate(0,0)"/>
<path d="M0 0 C0.65744898 -0.00297112 1.31489796 -0.00594224 1.99226964 -0.0090034 C4.20035445 -0.01768995 6.40838504 -0.01919872 8.6164856 -0.02069092 C10.1985994 -0.0253198 11.78071209 -0.03034455 13.36282349 -0.03573608 C17.66970321 -0.04887122 21.97656732 -0.05530934 26.28346395 -0.05974674 C28.98206 -0.06268082 31.68065184 -0.06678667 34.37924576 -0.07125092 C42.84376565 -0.08494008 51.30827585 -0.09459498 59.77280605 -0.09845281 C69.50079467 -0.10291169 79.22864124 -0.12035177 88.95658672 -0.1494534 C96.49746792 -0.17121673 104.03830964 -0.18116512 111.57922184 -0.18249393 C116.0707725 -0.18353324 120.56218993 -0.18924949 125.05370712 -0.20731354 C172.7479591 -0.38799364 213.81901531 8.36466976 249.55447388 42.14044189 C250.35369263 42.87520752 251.15291138 43.60997314 251.97634888 44.36700439 C268.54732884 60.14637704 280.42019723 80.13215957 286.55447388 102.14044189 C286.85998169 103.22196533 287.1654895 104.30348877 287.48025513 105.41778564 C296.22802803 138.29448663 290.914356 175.94320175 274.18948364 205.35528564 C270.20181586 212.0663015 265.62511607 218.2101844 260.55447388 224.14044189 C260.07752075 224.75016846 259.60056763 225.35989502 259.10916138 225.98809814 C255.38086849 230.66444265 250.93892172 234.24420447 246.26541138 237.95294189 C244.00892493 239.77373788 241.91102953 241.65347237 239.80447388 243.64044189 C228.47720878 253.47549243 207.67138924 266.14044189 192.55447388 266.14044189 C192.84991089 266.60603516 193.1453479 267.07162842 193.44973755 267.55133057 C204.87522575 285.56954244 216.09620052 303.70595603 227.15258789 321.95269775 C233.37667474 332.22319562 239.66735183 342.45068381 246.0071106 352.65020752 C254.95598405 367.05199187 263.86106989 381.48092176 272.73416138 395.92950439 C275.10280206 399.7857886 277.48157653 403.63529944 279.87478638 407.47637939 C280.62477905 408.68644653 280.62477905 408.68644653 281.3899231 409.92095947 C282.29070143 411.37411361 283.19554243 412.82476291 284.10574341 414.27203369 C291.55447388 426.33166909 291.55447388 426.33166909 291.55447388 432.14044189 C278.88052039 432.20996582 266.20661232 432.26326547 253.53250694 432.29587841 C247.64734535 432.31153133 241.76231427 432.33276307 235.87722778 432.36676025 C230.19733015 432.3993666 224.51755802 432.41729773 218.83757401 432.42507362 C216.67104746 432.4306148 214.50452775 432.44143534 212.33805466 432.45763206 C209.30245899 432.47942295 206.26738133 432.48240808 203.23171997 432.48101807 C201.88951889 432.49719681 201.88951889 432.49719681 200.52020264 432.51370239 C195.43685454 432.48853091 191.96594606 431.950602 187.55447388 429.14044189 C183.14619028 424.65375009 180.29346168 418.74972526 177.17947388 413.32794189 C175.92697055 411.16382103 174.6743634 408.99976025 173.42166138 406.83575439 C172.46211548 405.17334717 172.46211548 405.17334717 171.48318481 403.47735596 C168.43887381 398.21031257 165.37173432 392.95664311 162.30447388 387.70294189 C161.71674194 386.69570068 161.12901001 385.68845947 160.52346802 384.6506958 C158.86775066 381.8135854 157.21132246 378.9768918 155.55447388 376.14044189 C155.11184204 375.38247314 154.66921021 374.62450439 154.21316528 373.84356689 C149.62197417 365.98853892 144.97493519 358.16958059 140.27883911 350.37677002 C132.52478345 337.50450293 124.95875426 324.53396783 117.48220825 311.49884033 C114.42888542 306.1795003 111.36477413 300.86639447 108.29983521 295.55374146 C107.32881948 293.87015333 106.35862822 292.18608979 105.38845825 290.50201416 C104.79871216 289.4790625 104.20896606 288.45611084 103.60134888 287.40216064 C103.08411255 286.50457031 102.56687622 285.60697998 102.03396606 284.68218994 C101.00621163 282.91652139 99.94707306 281.16889884 98.86404419 279.43658447 C97.55447388 277.14044189 97.55447388 277.14044189 97.55447388 275.14044189 C96.69225723 275.14266251 95.83004059 275.14488312 94.94169617 275.14717102 C86.83341352 275.16717185 78.7251391 275.18241496 70.6168375 275.19225407 C66.4478456 275.19748241 62.27887401 275.20457916 58.1098938 275.21588135 C54.08989702 275.22671198 50.06991983 275.2327191 46.04990959 275.23531914 C44.51284413 275.23717307 42.97577978 275.24079308 41.43872261 275.24617195 C39.29311901 275.25338473 37.14759733 275.25443274 35.00198364 275.25396729 C33.77842667 275.2561879 32.55486969 275.25840851 31.29423523 275.26069641 C28.55447388 275.14044189 28.55447388 275.14044189 27.55447388 274.14044189 C27.84270319 266.20178302 30.37917132 259.68843294 33.36697388 252.39044189 C33.85254761 251.1812207 34.33812134 249.97199951 34.83840942 248.72613525 C36.13038502 245.51349289 37.43781064 242.30739085 38.75076294 239.10327148 C39.55374025 237.14223356 40.35336434 235.17985876 41.15213013 233.21710205 C42.71638044 229.37601084 44.28930024 225.53853747 45.86697388 221.70294189 C46.58494141 219.95642334 46.58494141 219.95642334 47.31741333 218.17462158 C56.69620596 195.56957585 56.69620596 195.56957585 59.55447388 194.14044189 C62.22118385 194.03872765 64.86266899 193.99679466 67.52981567 193.99859619 C68.35457397 193.99512177 69.17933228 193.99164734 70.02908325 193.98806763 C71.82588206 193.98070229 73.62269002 193.97536106 75.41950035 193.97177696 C78.27607409 193.96460445 81.13247674 193.9489264 83.98899841 193.93043518 C92.1134183 193.8780426 100.2377505 193.83011648 108.36233521 193.81451416 C113.33153942 193.80434605 118.30032142 193.77478848 123.26935768 193.73319435 C125.15207514 193.72099091 127.03485259 193.71574331 128.91760826 193.71799278 C149.71485977 193.73670398 166.84396441 189.55496825 183.10916138 175.58966064 C192.213509 166.47076933 195.88183506 155.71608421 196.0227356 143.03106689 C196.01258423 141.97403564 196.00243286 140.91700439 195.99197388 139.82794189 C195.98440063 138.72579346 195.97682739 137.62364502 195.96902466 136.48809814 C195.70618648 123.50350841 192.88589572 112.35403731 183.36697388 102.98809814 C177.34147664 97.80269427 171.03751078 94.7099775 163.55447388 92.14044189 C162.70498169 91.84395752 161.8554895 91.54747314 160.98025513 91.24200439 C146.10999249 86.64201503 130.04903362 86.8508701 114.64041138 86.94512939 C112.80525875 86.94887267 110.97010409 86.9517134 109.13494873 86.95370483 C104.37086185 86.96123803 99.60690247 86.98079409 94.84286499 87.00311279 C89.95508548 87.02379726 85.0672848 87.03275421 80.17947388 87.04278564 C70.63775206 87.06405283 61.09612369 87.09805934 51.55447388 87.14044189 C51.35178642 88.50395782 51.35178642 88.50395782 51.14500427 89.89501953 C50.66657758 92.52434513 50.12289538 94.62588833 49.10598755 97.06719971 C48.66120811 98.14871307 48.66120811 98.14871307 48.20744324 99.2520752 C47.88239304 100.02476746 47.55734283 100.79745972 47.22244263 101.59356689 C46.8787413 102.42571716 46.53503998 103.25786743 46.18092346 104.11523438 C45.43310019 105.92453482 44.68252923 107.73270148 43.92953491 109.53985596 C41.87603703 114.46901076 39.84280762 119.40651735 37.80838013 124.34356689 C37.16669891 125.89896179 37.16669891 125.89896179 36.51205444 127.48577881 C32.07598324 138.25983131 27.76792517 149.08399106 23.46362305 159.91119385 C17.59802766 174.66139802 11.70422104 189.37740203 5.35427856 203.92681885 C-0.16073517 216.64135242 -5.34749314 229.49144192 -10.57052612 242.32794189 C-11.26658966 244.03754089 -11.26658966 244.03754089 -11.97671509 245.78167725 C-17.27046947 258.78905408 -22.52506632 271.81152439 -27.73336792 284.85334778 C-32.31894474 296.33486667 -36.9408208 307.80165603 -41.57052612 319.26544189 C-42.2476767 320.94223022 -42.2476767 320.94223022 -42.93850708 322.65289307 C-51.3653335 343.51326894 -59.85173284 364.34827969 -68.44552612 385.14044189 C-68.78622131 385.96489807 -69.1269165 386.78935425 -69.47793579 387.63879395 C-71.56826777 392.69544907 -73.6624807 397.7504746 -75.76150513 402.80352783 C-76.41702651 404.38188618 -77.07195061 405.96049275 -77.72622681 407.53936768 C-78.62651998 409.71071468 -79.52971725 411.88082982 -80.43380737 414.05059814 C-80.69556259 414.68308975 -80.95731781 415.31558136 -81.227005 415.96723938 C-86.54419185 428.68977476 -86.54419185 428.68977476 -93.44552612 432.14044189 C-95.44554449 432.25236763 -97.44929247 432.29974969 -99.45236206 432.31744385 C-100.71417297 432.33027908 -101.97598389 432.34311432 -103.27603149 432.3563385 C-104.66065071 432.36450701 -106.04527437 432.37195053 -107.42990112 432.37872314 C-108.12666206 432.38279867 -108.823423 432.3868742 -109.54129791 432.39107323 C-113.23105066 432.41193713 -116.9207662 432.42623594 -120.61056519 432.43560791 C-124.41486523 432.44665749 -128.21857794 432.48103872 -132.02267075 432.52077961 C-134.95328834 432.54697801 -137.88376688 432.55530267 -140.81449127 432.55888939 C-142.21628016 432.56374915 -143.61806309 432.57534587 -145.01973724 432.59392738 C-146.98671791 432.61837659 -148.95398463 432.61492835 -150.92111206 432.6104126 C-152.03870911 432.61627884 -153.15630615 432.62214508 -154.30776978 432.62818909 C-158.20686513 432.02209588 -160.37033952 430.56799935 -163.44552612 428.14044189 C-165.15280151 425.58184814 -165.15280151 425.58184814 -166.48068237 422.70294189 C-166.97713257 421.63688721 -167.47358276 420.57083252 -167.9850769 419.47247314 C-170.35886201 414.05665584 -172.65912279 408.61959049 -174.88302612 403.14044189 C-175.66658014 401.22661796 -176.45191356 399.3135294 -177.23721313 397.40042114 C-177.78889366 396.05601493 -178.34003362 394.71138677 -178.89065552 393.36654663 C-182.08399161 385.56898114 -185.32684302 377.79216546 -188.57052612 370.01544189 C-189.19871839 368.50828812 -189.826892 367.00112657 -190.45504761 365.49395752 C-195.0580004 354.45294936 -199.67566222 343.41811448 -204.2963562 332.38452148 C-216.60946178 302.98230596 -216.60946178 302.98230596 -222.07052612 289.89044189 C-222.3719754 289.1678418 -222.67342468 288.4452417 -222.98400879 287.70074463 C-228.26494562 275.03483743 -233.465538 262.33662884 -238.6574707 249.6340332 C-242.84861141 239.38605958 -247.10900955 229.17624626 -251.50802612 219.01544189 C-256.03487324 208.55324187 -260.36944348 198.02453622 -264.63302612 187.45294189 C-269.92097333 174.34157646 -275.26987013 161.25796136 -280.69552612 148.20294189 C-281.0460202 147.35946198 -281.39651428 146.51598206 -281.75762939 145.64694214 C-283.20081021 142.1740425 -284.64404011 138.7011633 -286.08757019 135.22840881 C-290.39059159 124.87279241 -294.66753262 114.50641605 -298.94552612 104.14044189 C-303.97686221 91.94952094 -309.01383575 79.76103594 -314.07414246 67.58210754 C-316.8790039 60.83115825 -319.67708164 54.07742486 -322.47071838 47.32182312 C-324.44719992 42.5442898 -326.43380947 37.77112954 -328.42788696 33.00091553 C-329.67158291 30.0198452 -330.90655205 27.03521762 -332.13919067 24.04956055 C-332.71042821 22.67108633 -333.28531809 21.29411895 -333.86416626 19.91882324 C-334.65233132 18.04494143 -335.42624022 16.16508247 -336.19943237 14.28497314 C-336.6358606 13.23672363 -337.07228882 12.18847412 -337.52194214 11.10845947 C-338.50176841 7.95970241 -338.62139918 5.41779805 -338.44552612 2.14044189 C-335.04031471 0.43783619 -331.15160493 1.01179369 -327.40597534 1.0269165 C-326.46934052 1.02677048 -325.53270569 1.02662445 -324.56768799 1.026474 C-321.4618399 1.02717246 -318.35605127 1.03496175 -315.25021362 1.04278564 C-313.10072869 1.04465006 -310.95124333 1.04607385 -308.80175781 1.04707336 C-303.13657463 1.05089667 -297.47141697 1.06072539 -291.8062439 1.07177734 C-286.02845607 1.08199546 -280.25066413 1.08657184 -274.47286987 1.09161377 C-263.13041073 1.1023478 -251.78797054 1.11942201 -240.44552612 1.14044189 C-231.75394745 19.41148925 -231.75394745 19.41148925 -228.66427612 27.22637939 C-228.36162842 27.97851715 -228.05898071 28.73065491 -227.74716187 29.50558472 C-226.80857004 31.84034854 -225.87661195 34.1776761 -224.94552612 36.51544189 C-223.70829798 39.60753498 -222.46816977 42.6984565 -221.22677612 45.78887939 C-220.91715439 46.56051926 -220.60753265 47.33215912 -220.28852844 48.12718201 C-218.10372466 53.55438155 -215.85584146 58.95243389 -213.57443237 64.33966064 C-209.34001056 74.33977336 -205.24288362 84.39412365 -201.15319824 94.45413208 C-194.75474766 110.19022204 -188.32129014 125.90984985 -181.75802612 141.57794189 C-175.99809359 155.33197329 -170.37373124 169.13790523 -164.79330444 182.96566772 C-160.07150052 194.66566465 -155.32295872 206.35344489 -150.50802612 218.01544189 C-144.83558866 231.75460505 -139.19612366 245.50702905 -133.57052612 259.26544189 C-133.16327301 260.26138367 -132.7560199 261.25732544 -132.33642578 262.28344727 C-130.03892528 267.90222731 -127.74197701 273.52123278 -125.44552612 279.14044189 C-123.08222842 274.52635395 -120.86115893 269.92456036 -118.95724487 265.09747314 C-113.91234278 252.32728345 -108.82686775 239.5749041 -103.65468979 226.8556881 C-97.36976723 211.39586585 -91.12893915 195.91845936 -84.90646362 180.43341064 C-84.49647188 179.41319635 -84.08648014 178.39298206 -83.66406441 177.34185219 C-80.28934053 168.94379982 -76.91597769 160.5452009 -73.54275513 152.14654541 C-70.60217648 144.82522508 -67.66101771 137.5041382 -64.71896362 130.18341064 C-64.31405512 129.17582199 -63.90914661 128.16823334 -63.49196815 127.13011169 C-57.88517697 113.18036863 -52.2499925 99.24254118 -46.58195496 85.31758118 C-43.11342634 76.79429685 -39.67833954 68.25866214 -36.28070068 59.70690918 C-34.57405443 55.41869 -32.8540735 51.13579269 -31.13539124 46.85238647 C-29.60040688 43.02598493 -28.0696077 39.19799637 -26.54611206 35.36700439 C-24.97399423 31.41596787 -23.38861609 27.47047825 -21.79437256 23.52832031 C-21.19324568 22.03571883 -20.59656356 20.54131853 -20.00463867 19.04504395 C-19.18303466 16.97025667 -18.34556005 14.90256158 -17.50411987 12.83575439 C-17.03288696 11.66029053 -16.56165405 10.48482666 -16.07614136 9.27374268 C-12.18893745 1.8043049 -8.0688805 0.02035203 0 0 Z " fill="#FEFEFE" transform="translate(517.4455261230469,285.85955810546875)"/>
<path d="M0 0 C2.85423192 -0.02718316 5.70820015 -0.04692705 8.5625 -0.0625 C9.36236328 -0.07087891 10.16222656 -0.07925781 10.98632812 -0.08789062 C15.77163104 -0.10742247 20.28145051 0.19562982 25 1 C25 1.33 25 1.66 25 2 C19.89398043 2.84297013 14.9476286 3.13894839 9.76977539 3.11352539 C8.58318329 3.11374443 8.58318329 3.11374443 7.37261963 3.1139679 C4.78093641 3.11327616 2.18932678 3.10551863 -0.40234375 3.09765625 C-2.20837871 3.09578944 -4.01441418 3.09436678 -5.82044983 3.09336853 C-10.5567059 3.08956404 -15.29293093 3.07975154 -20.0291748 3.06866455 C-24.86905498 3.05840583 -29.7089402 3.05386138 -34.54882812 3.04882812 C-44.03256566 3.03812731 -53.51628024 3.02107589 -63 3 C-63 2.67 -63 2.34 -63 2 C-42.21 1.67 -21.42 1.34 0 1 C0 0.67 0 0.34 0 0 Z " fill="#183728" transform="translate(634,372)"/>
<path d="M0 0 C0.66 0.33 1.32 0.66 2 1 C-0.31 6.94 -2.62 12.88 -5 19 C-5.66 18.67 -6.32 18.34 -7 18 C-6.67 16.02 -6.34 14.04 -6 12 C-5.34 12 -4.68 12 -4 12 C-3.79503906 11.38511719 -3.59007812 10.77023437 -3.37890625 10.13671875 C-2.25260417 6.7578125 -1.12630208 3.37890625 0 0 Z " fill="#102017" transform="translate(450,419)"/>
<path d="M0 0 C2.97 0 5.94 0 9 0 C6.33684806 2.66315194 4.34655932 2.94426493 0.640625 3.09765625 C-0.14828125 3.08605469 -0.9371875 3.07445312 -1.75 3.0625 C-2.54921875 3.05347656 -3.3484375 3.04445313 -4.171875 3.03515625 C-4.77515625 3.02355469 -5.3784375 3.01195312 -6 3 C-6 2.67 -6 2.34 -6 2 C-4.02 2 -2.04 2 0 2 C0 1.34 0 0.68 0 0 Z " fill="#05150C" transform="translate(666,476)"/>
<path d="M0 0 C1.43088528 2.86177057 0.59991697 4.93375773 0 8 C-0.99 8.33 -1.98 8.66 -3 9 C-2.5020163 5.26512223 -2.12508244 3.18762365 0 0 Z " fill="#0B1B12" transform="translate(452,663)"/>
<path d="M0 0 C0.99 0 1.98 0 3 0 C3.33 1.98 3.66 3.96 4 6 C3.01 6.495 3.01 6.495 2 7 C1.34 4.69 0.68 2.38 0 0 Z " fill="#10261B" transform="translate(315,378)"/>
<path d="M0 0 C2.97 0.495 2.97 0.495 6 1 C6 1.99 6 2.98 6 4 C3.69 3.34 1.38 2.68 -1 2 C-0.67 1.34 -0.34 0.68 0 0 Z " fill="#11251B" transform="translate(708,291)"/>
</svg>
