<svg xmlns="http://www.w3.org/2000/svg" version="1.1" xmlns:xlink="http://www.w3.org/1999/xlink" xmlns:svgjs="http://svgjs.dev/svgjs" width="500" height="500"><svg xmlns="http://www.w3.org/2000/svg" xmlns:xlink="http://www.w3.org/1999/xlink" width="500" zoomAndPan="magnify" viewBox="0 0 375 374.999991" height="500" preserveAspectRatio="xMidYMid meet" version="1.0"><defs><g></g></defs><rect x="-37.5" width="450" fill="#ffffff" y="-37.499999" height="449.999989" fill-opacity="1"></rect><rect x="-37.5" width="450" fill="#000000" y="-37.499999" height="449.999989" fill-opacity="1"></rect><g fill="#ffffff" fill-opacity="1"><g transform="translate(42.232386, 262.322398)"><g><path d="M 32.609375 -157.21875 L 82.34375 -45.890625 L 132.09375 -157.21875 L 154.3125 -157.21875 L 82.34375 3.859375 L 10.625 -157.21875 Z M 32.609375 -157.21875 "></path></g></g></g><g fill="#ffffff" fill-opacity="1"><g transform="translate(159.350357, 262.322398)"><g><path d="M 131.375 0 L 106.015625 0 L 46.375 -84.28125 L 69.0625 -84.28125 C 74.863281 -84.28125 80.019531 -84.679688 84.53125 -85.484375 C 88.875 -86.128906 92.253906 -86.9375 94.671875 -87.90625 C 99.660156 -90.15625 103.601562 -93.457031 106.5 -97.8125 C 109.394531 -102 110.84375 -106.34375 110.84375 -110.84375 C 110.84375 -115.351562 109.476562 -119.617188 106.75 -123.640625 C 104.007812 -127.503906 100.0625 -130.726562 94.90625 -133.3125 C 89.757812 -135.726562 83.800781 -136.9375 77.03125 -136.9375 L 40.578125 -136.9375 L 41.0625 0 L 20.53125 0 L 20.53125 -157.21875 L 77.03125 -157.21875 C 84.601562 -157.21875 91.691406 -156.007812 98.296875 -153.59375 C 104.890625 -151.175781 110.679688 -147.710938 115.671875 -143.203125 C 120.503906 -138.859375 124.289062 -133.867188 127.03125 -128.234375 C 129.601562 -122.597656 130.890625 -116.800781 130.890625 -110.84375 C 130.890625 -101.34375 127.992188 -92.8125 122.203125 -85.25 C 117.367188 -78.8125 110.847656 -73.578125 102.640625 -69.546875 C 96.359375 -67.296875 90.800781 -66.171875 85.96875 -66.171875 Z M 131.375 0 "></path></g></g></g><g fill="#ffffff" fill-opacity="1"><g transform="translate(257.392135, 262.322398)"><g></g></g></g></svg><style>@media (prefers-color-scheme: light) { :root { filter: none; } }
@media (prefers-color-scheme: dark) { :root { filter: none; } }
</style></svg>